<?xml version="1.0" encoding="UTF-8"?>
<svg id="_レイヤー_1" data-name="レイヤー 1" xmlns="http://www.w3.org/2000/svg" viewBox="0 0 32 32">
  <defs>
    <style>
      .cls-1 {
        fill: none;
      }

      .cls-2 {
        fill: #1f1fdd;
      }

      .cls-3 {
        fill: #180d21;
      }

      .cls-4 {
        fill: #e21331;
      }
    </style>
  </defs>
  <path class="cls-1" d="M13.44,14.29c-.26-1.82-2.54-1.12-4.48.11,0,0,0,0,0,0,0,0,.01,0,.02,0h0s.04.01.04.01c0,0,0,0,0,0l.06.02c1.19.37,2.1.53,2.8.53.75,0,1.25-.16,1.59-.42,0-.05,0-.09,0-.14-.01-.04-.02-.08-.03-.12Z"/>
  <path class="cls-1" d="M7.58,13.42s.05,0,.08,0c1.82-.07,3.11-.63,3.97-1.3,0,0,.02-.01.03-.02,0,0,.02-.02.03-.03.02-.02.05-.04.07-.06,0,0,.01-.01.02-.02.05-.05.11-.1.16-.15-.69.07-1.47.28-2.22.56-.78.29-1.54.63-2.13,1.02Z"/>
  <path class="cls-1" d="M19.43,22.92s.02-.03.03-.05c.5-.82.76-1.46.86-1.96,0-.02,0-.04.01-.07-.66.59-.89,1.34-.9,2.07Z"/>
  <path class="cls-1" d="M28.81,11.09c.22,0,.39-.63.39-1.4s-.18-1.4-.39-1.4-.39.63-.39,1.4.18,1.4.39,1.4Z"/>
  <path class="cls-1" d="M12.06,16.19s-.04.03-.06.04c0,0-.01,0-.02.01-.04.03-.08.06-.13.09,0,0,0,0,0,0-.04.03-.09.07-.13.1.83-.18,1.29-.53,1.53-.93-.39.16-.8.41-1.18.68h0Z"/>
  <path class="cls-1" d="M27.17,9.75c.27,0,.49-.77.49-1.73s-.22-1.73-.49-1.73-.49.77-.49,1.73.22,1.73.49,1.73Z"/>
  <path class="cls-1" d="M14.14,20.77c-.45.51-.78,1.06-1.02,1.61.94-.64,1.46-1.41,1.73-2.21,0-.02.01-.04.02-.05-.26.2-.5.41-.72.65Z"/>
  <path class="cls-4" d="M14.9,16.33s0,0,0-.01c0-.02,0-.04,0-.06h0s0-.05,0-.07c0-.04,0-.09,0-.13,0-.02,0-.04,0-.06-.11-.84-.83-.84-1.65-.49-.24.4-.7.75-1.53.93-.72.59-1.33,1.43-1.41,1.54,0,0,0,.01,0,.01-.66.94-1.88,1.32-2.95.82-.42-.2-.76-.5-1-.87-.05.13-.1.26-.13.4-.29,1.28.5,2.54,1.78,2.83,1.15.26,2.26-.37,2.71-1.43,0,0,0,0,0-.02.06-.14.53-1.19,1.16-1.93,0,0,0,0,0,0,.03-.04.07-.08.1-.12,0,0,.01-.01.02-.02.02-.02.04-.04.05-.06h0c1-1.07,2.31-1.95,2.73-.77,0,.02.01.04.02.06.01.04.03.08.03.12,0,.02.01.04.02.06h0s0,.04.02.06c0,0,0,0,0,.01,0,.02.01.04.01.06.02-.24.03-.47.03-.7,0-.06,0-.12,0-.19Z"/>
  <path class="cls-4" d="M20.33,20.84s0,.04-.01.07c-.1.5-.36,1.13-.86,1.96,0,.01-.02.03-.03.05-.01.95.34,1.87.59,2.37.58,1.17.11,2.59-1.06,3.18,0,0-.02,0-.03.01.01,0,.02.01.03.02.78.33,1.7.24,2.41-.33,1.02-.82,1.19-2.31.37-3.33-.63-.79-1.88-2.84-.56-4.5.02-.02.03-.04.05-.06-.32.14-.6.31-.82.5-.03.03-.06.05-.09.08Z"/>
  <path class="cls-4" d="M12.82,10.7s.02-.01.04-.02c.03-.01.05-.03.08-.04,0,0,.02,0,.03-.01.89-.5,1.41-1.29,1.69-2.04,0,0,0,0,0,0,1.19-3.12,4.21-5.35,7.75-5.36,1.17,0,2.29.24,3.3.68-1.79-1.15-4.01-1.62-6.26-1.14-3.46.75-5.95,3.56-6.46,6.86,0,0,0,0,0,0-.05.37-.16.76-.33,1.14.04-.02.09-.04.13-.06,0,0,.02-.01.03-.02Z"/>
  <path class="cls-4" d="M6.19,15.69c.07-.14.14-.27.23-.39.55-.75,1.5-1.11,2.41-.92.04.01.09.02.13.03,0,0,0,0,0,0,1.94-1.23,4.23-1.93,4.48-.11,0,.04.01.08.03.12,0,.05,0,.09,0,.14.08-.06.15-.13.22-.21.2-.24.32-.52.39-.81.01-.06.03-.12.04-.18,0-.04,0-.08,0-.12.08-1.19-.9-1.52-2.19-1.39-.05.05-.1.1-.16.15,0,0-.01.01-.02.02-.02.02-.05.04-.07.06-.01,0-.02.02-.03.03-.01,0-.02.02-.03.02-.85.67-2.15,1.23-3.97,1.3-.03,0-.05,0-.08,0-.09.06-.17.12-.25.18-.47.35-1.04.97-1.04.97-.86.78-2.17.93-3.2.28-.44-.28-.77-.66-.98-1.1-.3.28-.54.62-.69,1.03-.5,1.38.2,2.9,1.58,3.4,1.13.41,2.36.01,3.04-.91-.13-.51-.09-1.07.15-1.59Z"/>
  <path class="cls-4" d="M18.3,19.16c-.07,0-.13,0-.2-.01-1.34-.05-2.41.35-3.24.97,0,.02-.01.04-.02.05-.26.8-.79,1.57-1.73,2.21-.42.93-.61,1.88-.71,2.64,0,.01,0,.02,0,.04h0c-.22,1.45-1.47,2.55-2.98,2.56-.36,0-.7-.06-1.02-.18.51,1.39,1.98,2.22,3.47,1.9,1.47-.32,2.46-1.66,2.38-3.12h0s0-.03,0-.04c-.1-1.23-.08-2.93.8-4.53.68-1.13,1.79-2.11,3.53-2.41,0,0,.02,0,.03,0-.15-.05-.27-.07-.31-.07h0Z"/>
  <path class="cls-2" d="M8.51,16.52c.05,0,.1,0,.15,0h0s.05,0,.05,0h.06c1.25.12,2.17.08,2.85-.06.03,0,.05-.01.08-.02.04-.04.09-.07.13-.1,0,0,0,0,0,0,.04-.03.08-.06.13-.09,0,0,.01-.01.02-.01.02-.01.04-.03.06-.04h0c.39-.26.8-.51,1.18-.67.01-.02.02-.03.03-.05.15-.27.2-.57.21-.87,0-.02,0-.03,0-.05-.34.26-.84.43-1.59.42-.7,0-1.61-.16-2.8-.53l-.06-.02s0,0,0,0h-.04s0-.01,0-.01c0,0-.01,0-.02,0-.81.51-1.58,1.1-2.08,1.67-.38.44-.81,1.16-.81,1.16,0,.01-.02.03-.03.04.06.24.16.47.3.68,0-.01,0-.02.01-.04.38-.85,1.23-1.4,2.16-1.4Z"/>
  <path class="cls-2" d="M18.05,27.8c-.74-.92-.67-2.22.09-3.06h0c.54-.69.96-1.29,1.28-1.82.01-.73.24-1.48.9-2.07.29-1.69-1.37-1.64-1.55-1.63h0c-.06,0-.11.02-.17.03.51.16,1.38.63.84,1.91-.2.46-.58,1.03-1.25,1.73-.43.46-.98.97-1.67,1.55h0c-.92.67-1.26,1.92-.73,2.98.18.36.44.65.75.87.68.49,1.6.59,2.4.2-.33-.15-.64-.38-.88-.68Z"/>
  <path class="cls-2" d="M28.33,5.7c-.74-.75-1.63-1.36-2.62-1.79.01,0,.03.02.04.03,1.77,1.15,3.1,2.97,3.58,5.2.92,4.23-1.57,8.41-5.62,9.68-.02.01-.05.02-.08.03,0,0,0,0,0,0-.07.02-.14.04-.2.06-.43.14-1,.43-1.07.47-.48.28-.85.58-1.12.9.16-.07.34-.14.52-.2.08-.02.69-.19,1.15-.23.07,0,.14,0,.21-.01h0s.06,0,.08,0c4.23-.4,7.53-3.96,7.52-8.29,0-2.28-.92-4.34-2.41-5.83Z"/>
  <path class="cls-2" d="M9.65,23.82s.36-.25,1.02-.4c.22-.05.44-.1.66-.17.69-.23,1.26-.51,1.73-.83.02-.01.04-.03.06-.04.25-.55.58-1.1,1.02-1.61.22-.23.46-.45.72-.65.3-.95.24-1.94.04-2.79,0-.04-.02-.08-.03-.12-.06.69-.24,1.41-.63,2.07-.44.74-1.13,1.4-2.22,1.82-.53.21-1.14.36-1.87.44-.22.03-.45.03-.68.03-.67,0-1.08.17-1.08.17-1.17.41-2.02,1.53-2.01,2.85,0,.15.01.29.03.43.16,1.12.94,2.04,1.98,2.41-.05-.13-.09-.27-.12-.41-.28-1.29.31-2.56,1.37-3.21Z"/>
  <path class="cls-2" d="M4.34,13.07h0s1.56.27,3.24.35c.59-.38,1.35-.73,2.13-1.02.75-.28,1.53-.48,2.22-.56.33-.32.57-.69.74-1.06-.97.44-2.31.68-4.02.38-1.65-.43-3.17-1.04-3.17-1.04h0c-.75-.29-1.59-.22-2.27.17-.37.21-.69.51-.93.89-.51.8-.53,1.77-.15,2.56.01-.01.02-.02.03-.03.59-.52,1.39-.77,2.19-.64Z"/>
  <path class="cls-3" d="M6.88,16.07c.5-.57,1.27-1.15,2.08-1.67-.04-.01-.09-.02-.13-.03-.91-.19-1.86.17-2.41.92-.09.12-.17.25-.23.39-.24.52-.28,1.08-.15,1.59,0-.01.02-.03.03-.04,0,0,.43-.72.81-1.16Z"/>
  <path class="cls-3" d="M3.09,14.84c1.03.65,2.34.5,3.2-.28,0,0,.57-.62,1.04-.97.08-.06.17-.12.25-.18-1.68-.08-3.24-.35-3.24-.35h0c-.8-.13-1.6.12-2.19.64-.01.01-.02.02-.03.03.21.44.54.82.98,1.1Z"/>
  <path class="cls-3" d="M22.36,19.37c.08-.04.64-.33,1.07-.47.07-.02.14-.04.2-.06,0,0,0,0,0,0,.03,0,.06-.01.08-.03,4.05-1.28,6.53-5.45,5.62-9.68-.48-2.22-1.81-4.05-3.58-5.2-.01,0-.03-.02-.04-.03-1.01-.44-2.13-.68-3.3-.68-3.54,0-6.56,2.23-7.75,5.36,0,0,0,0,0,0-.28.74-.8,1.54-1.69,2.04,0,0-.02.01-.03.01-.03.01-.05.03-.08.04-.01,0-.03.01-.04.02-.01,0-.02.01-.03.02-.04.02-.08.04-.13.06-.17.38-.41.74-.74,1.06,1.29-.14,2.27.19,2.19,1.39,0,.04,0,.09,0,.12-.01.06-.02.12-.04.18-.07.29-.19.57-.39.81-.06.07-.14.14-.22.21,0,.02,0,.03,0,.05,0,.3-.06.6-.21.87,0,.02-.02.03-.03.05.82-.35,1.54-.35,1.65.49,0,.02,0,.04,0,.06,0,.04,0,.08,0,.13,0,.02,0,.04,0,.07h0s0,.04,0,.06c0,0,0,0,0,.01,0,.06,0,.12,0,.19,0,.23,0,.46-.03.7,0,.04.02.08.03.12.19.85.26,1.84-.04,2.79.83-.62,1.9-1.02,3.24-.97.06,0,.13,0,.2.01h0s.16.03.31.08c.06,0,.11-.02.17-.03h0c.18-.01,1.84-.06,1.55,1.63.03-.03.06-.05.09-.08.22-.18.5-.35.82-.5,0,0,0,0,0,0,.27-.32.63-.62,1.12-.9ZM28.81,8.29c.22,0,.39.63.39,1.4s-.18,1.4-.39,1.4-.39-.63-.39-1.4.18-1.4.39-1.4ZM27.17,6.29c.27,0,.49.77.49,1.73s-.22,1.73-.49,1.73-.49-.77-.49-1.73.22-1.73.49-1.73Z"/>
  <path class="cls-3" d="M20.02,25.29c-.25-.5-.6-1.42-.59-2.37-.32.53-.74,1.13-1.28,1.81h0c-.77.85-.83,2.15-.09,3.07.25.3.55.53.88.68,0,0,.02,0,.03-.01,1.17-.58,1.64-2,1.06-3.18Z"/>
  <path class="cls-3" d="M7.33,18.83c1.07.5,2.29.11,2.95-.82,0,0,0,0,0-.01.08-.12.7-.95,1.41-1.54-.03,0-.05.01-.08.02-.68.14-1.6.18-2.85.07h-.06s0,0,0,0h-.05s0,0,0,0c-.05,0-.1,0-.15,0-.93,0-1.78.55-2.16,1.4,0,.01-.01.02-.01.04.23.37.57.67,1,.87Z"/>
  <path class="cls-3" d="M12.4,25.07h0s0-.03,0-.04c.1-.77.29-1.71.71-2.64-.02.01-.04.03-.06.04-.47.31-1.04.59-1.73.83-.21.07-.44.13-.66.17-.65.14-1.02.4-1.02.4-1.06.65-1.65,1.92-1.37,3.21.03.14.07.28.12.41.32.11.66.18,1.02.18,1.51,0,2.76-1.11,2.98-2.55Z"/>
</svg>